<?xml version="1.0" standalone="no"?>
<!DOCTYPE svg PUBLIC "-//W3C//DTD SVG 20010904//EN"
 "http://www.w3.org/TR/2001/REC-SVG-20010904/DTD/svg10.dtd">
<svg version="1.0" xmlns="http://www.w3.org/2000/svg"
 width="1200.000000pt" height="675.000000pt" viewBox="0 0 1200.000000 675.000000"
 preserveAspectRatio="xMidYMid meet">

<g transform="translate(0.000000,675.000000) scale(0.100000,-0.100000)"
fill="#000000" stroke="none">
<path d="M0 3375 l0 -3375 6000 0 6000 0 0 3375 0 3375 -6000 0 -6000 0 0
-3375z m4755 799 c118 -32 232 -95 322 -177 l42 -38 71 60 c80 67 202 131 300
157 47 13 102 18 200 18 126 0 141 -2 230 -33 116 -39 223 -104 306 -186 l63
-62 38 40 c79 81 214 157 344 193 47 13 100 18 199 18 125 0 142 -2 227 -32
116 -39 181 -76 273 -153 l72 -61 61 59 c106 102 211 162 348 199 89 25 299
25 389 0 266 -73 476 -282 551 -550 32 -114 33 -288 1 -401 -74 -261 -252
-448 -512 -536 -89 -31 -104 -33 -230 -33 -148 0 -214 13 -326 64 -78 35 -144
80 -211 143 l-52 49 -17 -27 c-28 -42 -143 -132 -224 -174 -298 -156 -648
-104 -896 131 -50 48 -73 64 -77 54 -7 -19 -130 -115 -189 -149 -25 -15 -88
-41 -140 -59 -86 -29 -103 -32 -228 -32 -99 0 -152 4 -200 17 -98 27 -220 91
-300 158 l-71 60 -42 -38 c-91 -83 -203 -145 -328 -179 -88 -25 -298 -25 -389
0 -263 70 -476 282 -551 550 -19 66 -23 105 -23 211 1 119 3 138 32 224 44
128 102 222 191 312 114 113 260 190 416 219 70 13 258 4 330 -16z"/>
<path d="M4410 4095 c-194 -44 -375 -186 -464 -365 -99 -201 -100 -403 -1
-605 120 -247 381 -401 649 -382 159 11 302 69 408 166 l62 57 -21 30 c-83
118 -126 262 -126 429 0 167 43 311 126 429 l21 29 -56 52 c-116 108 -260 165
-428 171 -68 2 -128 -2 -170 -11z"/>
<path d="M5545 4095 c-122 -27 -258 -99 -332 -177 l-31 -33 39 -64 c145 -239
145 -553 0 -792 l-39 -64 36 -38 c53 -55 165 -122 257 -152 225 -76 489 -18
666 144 l66 60 -39 78 c-52 107 -69 178 -75 314 -4 96 -2 129 16 200 22 85 79
219 108 251 15 17 11 23 -59 92 -160 157 -400 228 -613 181z"/>
<path d="M7904 4095 c-135 -29 -247 -91 -346 -192 l-58 -58 45 -90 c64 -127
88 -224 88 -360 0 -129 -24 -232 -78 -340 l-35 -70 64 -61 c114 -110 256 -171
421 -181 123 -8 224 14 345 74 77 38 110 61 176 127 216 216 263 527 121 801
-62 120 -173 227 -297 288 -148 73 -299 94 -446 62z"/>
<path d="M6715 4064 c-92 -20 -216 -81 -288 -142 -91 -77 -92 -80 -58 -143
119 -220 114 -496 -11 -729 l-40 -75 74 -70 c121 -116 258 -179 419 -191 203
-15 432 76 557 222 l39 46 -33 56 c-75 124 -109 270 -101 427 6 118 24 191 74
298 l36 77 -24 26 c-45 49 -138 115 -211 149 -129 61 -288 79 -433 49z"/>
<path d="M5113 3798 c-22 -28 -62 -117 -84 -188 -32 -106 -33 -264 0 -370 23
-76 73 -184 90 -194 14 -9 80 133 102 224 39 154 10 359 -69 493 -22 37 -31
45 -39 35z"/>
<path d="M6242 3683 c-50 -108 -65 -191 -59 -318 4 -75 12 -131 27 -175 23
-67 47 -120 55 -120 11 0 57 106 76 177 25 91 29 237 9 323 -16 67 -59 180
-70 180 -4 0 -21 -30 -38 -67z"/>
<path d="M7416 3698 c-55 -124 -70 -287 -40 -421 17 -74 71 -207 84 -207 11 0
54 112 70 179 17 74 16 222 -4 303 -16 67 -69 198 -81 198 -3 0 -17 -24 -29
-52z"/>
</g>
</svg>
