<?xml version="1.0" standalone="no"?>
<!DOCTYPE svg PUBLIC "-//W3C//DTD SVG 20010904//EN"
 "http://www.w3.org/TR/2001/REC-SVG-20010904/DTD/svg10.dtd">
<svg version="1.0" xmlns="http://www.w3.org/2000/svg"
 width="512.000000pt" height="512.000000pt" viewBox="0 0 512.000000 512.000000"
 preserveAspectRatio="xMidYMid meet">

<g transform="translate(0.000000,512.000000) scale(0.100000,-0.100000)"
fill="#000000" stroke="none">
<path d="M2295 4964 c-639 -47 -1103 -161 -1525 -375 -844 -428 -1014 -1108
-410 -1637 739 -647 2362 -846 3582 -438 623 208 1042 545 1147 925 144 520
-290 1026 -1129 1313 -281 96 -601 163 -950 198 -106 11 -622 21 -715 14z
m705 -29 c832 -71 1576 -379 1906 -788 82 -103 158 -254 180 -362 20 -99 15
-265 -11 -343 -17 -48 -20 -51 -35 -37 -19 17 -30 11 -30 -19 -1 -21 -1 -21
-15 -2 -8 11 -15 14 -15 7 0 -18 -99 -166 -157 -236 -177 -213 -510 -409 -963
-566 l-165 -57 97 1 c53 1 95 5 92 9 -3 4 12 5 31 3 20 -3 34 -2 32 2 -3 5 11
9 30 10 20 1 41 7 46 12 14 14 30 14 22 1 -8 -13 -258 -93 -408 -129 -147 -36
-352 -72 -547 -96 -178 -22 -696 -31 -885 -16 -193 16 -459 52 -444 61 6 5 26
4 43 -1 45 -13 75 -11 92 6 8 8 21 12 30 8 12 -5 12 -8 -3 -20 -13 -11 -11
-11 9 1 17 10 58 18 108 20 77 4 126 16 64 16 -60 0 -450 70 -603 109 -184 47
-392 114 -437 142 -44 27 -64 61 -64 107 0 42 26 77 115 151 37 32 26 28 -40
-15 -15 -10 -25 -12 -25 -5 0 6 5 11 10 11 15 0 12 17 -4 23 -10 4 -13 1 -9
-8 7 -19 -25 -31 -40 -16 -8 8 -4 32 17 92 15 44 25 83 22 86 -3 4 -6 -1 -6
-9 0 -9 -7 -18 -15 -22 -8 -3 -15 -14 -15 -25 0 -11 -4 -23 -10 -26 -5 -3 -10
1 -10 9 0 9 -4 16 -10 16 -5 0 -10 -6 -10 -13 0 -18 -62 -87 -78 -87 -6 0 -12
-5 -12 -10 0 -11 2 -15 39 -87 16 -31 18 -43 9 -49 -8 -5 -6 -10 8 -15 10 -4
-9 -6 -43 -4 -69 4 -144 35 -251 105 -34 22 -66 39 -71 36 -10 -7 -57 33 -54
45 2 4 -3 6 -10 3 -15 -5 -74 43 -180 145 -38 36 -67 62 -66 56 4 -23 -2 -33
-19 -30 -9 2 -18 4 -19 5 -2 2 -8 3 -14 4 -35 4 -149 219 -175 331 -24 107
-16 287 18 385 100 287 361 538 763 735 434 213 949 329 1580 359 118 6 431
-4 605 -19z m2041 -1555 c13 0 11 -17 -3 -23 -9 -3 -13 6 -14 27 -1 17 1 23 3
14 2 -10 9 -18 14 -18z m-4721 -281 c18 -24 18 -28 4 -33 -10 -4 -14 -1 -11 6
7 21 -12 48 -29 41 -13 -5 -13 -8 2 -24 9 -10 13 -23 9 -29 -5 -8 -20 1 -46
26 -43 42 -51 61 -18 42 18 -11 23 -10 32 4 13 19 26 12 57 -33z m43 -118 c-4
-6 -63 51 -63 60 0 4 15 -7 33 -24 18 -18 31 -34 30 -36z m627 -109 c0 -5 -7
-17 -15 -28 -14 -18 -14 -17 -4 9 12 27 19 34 19 19z m30 0 c0 -5 -7 -17 -15
-28 -14 -18 -14 -17 -4 9 12 27 19 34 19 19z m3110 -272 c-8 -5 -19 -10 -25
-10 -5 0 -3 5 5 10 8 5 20 10 25 10 6 0 3 -5 -5 -10z m-265 -50 c-3 -5 -21 -9
-38 -9 l-32 2 35 7 c19 4 36 8 38 9 2 0 0 -3 -3 -9z m-2238 -136 c-3 -3 -12
-4 -19 -1 -8 3 -5 6 6 6 11 1 17 -2 13 -5z m50 -10 c-3 -3 -12 -4 -19 -1 -8 3
-5 6 6 6 11 1 17 -2 13 -5z m56 -11 c-7 -2 -19 -2 -25 0 -7 3 -2 5 12 5 14 0
19 -2 13 -5z m124 1 c-3 -3 -12 -4 -19 -1 -8 3 -5 6 6 6 11 1 17 -2 13 -5z"/>
<path d="M2342 4840 c-70 -13 -155 -54 -205 -99 -108 -97 -319 -518 -371 -741
-13 -55 -22 -256 -9 -209 4 15 34 25 136 46 15 3 27 9 27 14 0 5 6 9 13 9 8 0
22 9 32 20 10 11 27 20 38 20 17 0 18 5 13 38 l-5 37 15 -42 c58 -160 288
-173 694 -41 121 39 442 160 497 187 24 12 50 18 60 14 10 -3 14 -2 10 2 -8 9
102 69 111 61 2 -3 -7 -11 -21 -17 -15 -7 -24 -16 -20 -22 3 -6 1 -7 -6 -3
-14 9 -53 -2 -46 -14 6 -10 -21 -21 -38 -14 -8 3 -14 -1 -14 -8 0 -7 -4 -21
-8 -30 -4 -11 -3 -18 3 -18 6 0 18 -7 27 -16 15 -15 17 -15 35 1 10 9 27 15
38 13 10 -2 30 2 43 9 13 6 43 19 67 29 23 10 42 22 42 27 0 4 10 5 22 1 21
-6 22 -5 8 11 -14 17 -13 17 7 7 29 -16 44 -15 37 1 -5 13 44 43 54 33 3 -3
-3 -8 -12 -12 -9 -3 -16 -10 -16 -15 0 -5 11 -2 25 7 14 9 22 20 19 25 -3 5
-1 9 5 9 5 0 17 7 25 16 9 9 16 11 16 4 0 -7 11 -5 29 6 17 10 28 21 25 25 -2
5 4 13 15 18 29 16 38 13 15 -4 -17 -14 -17 -14 10 -3 15 7 23 14 17 16 -6 2
-11 12 -11 23 0 22 -18 26 -26 5 -4 -11 -11 -11 -33 -3 -29 10 -66 4 -57 -11
2 -4 -4 -8 -14 -8 -10 0 -18 5 -17 10 1 5 -7 11 -18 13 -15 3 -16 2 -7 -5 11
-7 10 -10 -3 -16 -9 -3 -21 -4 -26 0 -5 3 -9 -2 -9 -11 0 -9 -4 -14 -9 -11 -5
3 -22 -1 -37 -9 -56 -29 -48 -15 11 21 119 73 259 170 307 212 37 34 48 51 48
74 l0 31 86 -6 c47 -3 92 -11 100 -18 25 -21 16 10 -11 37 -88 88 -591 214
-1050 264 -135 15 -617 21 -683 10z m387 -61 c46 4 77 2 74 -3 -4 -5 10 -6 31
-2 20 4 36 3 36 -1 0 -5 18 -7 40 -5 46 5 142 -8 121 -16 -11 -4 -11 -6 0 -13
8 -6 -45 -6 -131 -2 -80 5 -211 8 -293 8 -81 0 -147 3 -147 8 0 4 7 7 16 7 8
0 13 4 9 9 -7 12 56 18 118 10 26 -3 83 -3 126 0z m387 -50 c3 -5 -9 -9 -25
-9 -29 0 -39 9 -25 22 7 8 43 -2 50 -13z m-205 -9 c284 -22 533 -63 778 -127
161 -41 201 -57 201 -77 0 -48 -263 -221 -542 -355 -344 -167 -769 -313 -989
-343 -140 -18 -249 12 -296 83 -54 81 -39 212 47 421 103 252 199 365 337 397
54 13 304 13 464 1z m-576 -30 c-3 -5 -12 -10 -18 -10 -7 0 -6 4 3 10 19 12
23 12 15 0z m1392 -486 c-3 -3 -12 -4 -19 -1 -8 3 -5 6 6 6 11 1 17 -2 13 -5z
m-255 -11 c-6 -2 -10 -9 -7 -14 4 -5 -2 -6 -11 -2 -13 5 -15 3 -9 -7 5 -9 4
-11 -3 -6 -7 4 -12 2 -12 -3 0 -6 -4 -11 -10 -11 -5 0 -10 3 -10 8 0 9 51 42
65 41 6 0 4 -3 -3 -6z"/>
<path d="M2968 4753 c7 -3 16 -2 19 1 4 3 -2 6 -13 5 -11 0 -14 -3 -6 -6z"/>
<path d="M1705 4775 c-397 -77 -684 -177 -979 -342 -266 -149 -493 -380 -568
-577 -23 -60 -49 -185 -47 -229 1 -22 4 -15 9 21 15 102 21 123 32 116 7 -4 8
-2 4 5 -8 13 31 101 45 101 5 0 9 7 9 16 0 9 5 12 12 8 7 -4 8 -3 4 4 -7 12
29 70 52 85 7 5 9 13 6 19 -5 7 -2 9 8 5 12 -4 14 -1 11 14 -4 12 0 19 9 19 8
0 23 10 34 22 12 13 13 18 4 13 -8 -5 -3 4 13 20 15 15 27 32 27 37 0 6 7 8
14 5 10 -4 13 -1 10 8 -7 17 32 38 58 32 14 -4 17 -2 9 7 -7 9 -1 17 25 31 19
10 41 18 50 18 8 0 13 6 10 14 -3 8 -2 12 2 9 4 -2 16 7 26 22 10 15 35 41 56
57 21 17 44 39 50 51 15 26 75 59 91 49 8 -5 10 -4 5 3 -4 7 4 14 21 18 15 3
33 11 38 18 11 12 30 18 60 20 11 1 26 5 33 9 7 5 19 4 28 -4 12 -10 17 -8 29
7 10 14 17 16 25 8 13 -13 63 -6 54 7 -6 11 4 10 31 -1 18 -8 18 -9 2 -9 -10
-1 -32 -8 -50 -17 -21 -12 -32 -13 -35 -5 -2 6 -8 11 -14 11 -5 0 -8 -6 -6
-12 3 -8 -46 -38 -128 -79 -387 -192 -601 -416 -650 -679 -26 -134 2 -263 87
-408 72 -121 361 -372 429 -372 38 0 55 25 116 168 80 188 315 657 414 827
113 193 234 376 343 517 121 157 125 163 110 187 -10 17 -9 20 13 25 39 10
234 98 234 106 0 27 -122 24 -275 -5z m15 -135 c12 -7 9 -15 -16 -47 -306
-382 -586 -863 -838 -1436 -72 -165 -90 -197 -111 -197 -23 0 -187 115 -263
185 -444 411 -292 904 383 1239 217 108 445 187 695 241 122 27 130 28 150 15z
m-273 -26 c-3 -3 -12 -4 -19 -1 -8 3 -5 6 6 6 11 1 17 -2 13 -5z m-157 -44
c-8 -5 -19 -10 -25 -10 -5 0 -3 5 5 10 8 5 20 10 25 10 6 0 3 -5 -5 -10z
m-122 -29 c11 -6 10 -10 -4 -15 -9 -3 -19 -4 -22 -1 -3 3 1 5 9 5 11 0 11 2
-1 10 -8 5 -10 10 -5 10 6 0 16 -4 23 -9z"/>
<path d="M895 4480 c-3 -5 -2 -10 4 -10 5 0 13 5 16 10 3 6 2 10 -4 10 -5 0
-13 -4 -16 -10z"/>
<path d="M4230 4483 c-30 -12 -60 -59 -111 -177 -74 -172 -276 -573 -371 -740
-147 -256 -298 -494 -501 -790 -105 -152 -137 -206 -137 -230 0 -17 4 -26 8
-21 12 18 76 60 67 44 -4 -7 3 -4 16 8 26 23 158 87 173 84 5 -1 6 5 2 14 -3
9 -2 14 3 11 5 -3 17 6 27 19 10 14 23 25 28 25 5 0 -2 -12 -17 -28 -32 -33
-38 -70 -15 -85 21 -14 137 7 319 57 789 216 1248 632 1165 1057 -8 42 -22 92
-30 112 -9 21 -23 53 -32 73 -8 20 -10 33 -5 29 6 -3 11 -13 11 -21 0 -8 4
-12 10 -9 5 3 7 0 5 -7 -3 -8 6 -29 19 -47 14 -18 33 -55 42 -82 10 -27 22
-49 26 -49 4 0 8 -15 8 -34 0 -19 4 -37 9 -40 5 -4 10 -36 11 -74 1 -37 2 -78
2 -92 1 -31 -5 -61 -16 -78 -4 -7 -6 -16 -3 -19 19 -18 67 161 67 250 0 238
-194 520 -495 719 -159 105 -238 139 -285 121z m217 -212 c109 -70 241 -191
311 -285 40 -53 92 -163 107 -228 31 -131 13 -257 -57 -392 -59 -113 -211
-267 -363 -365 -267 -174 -559 -284 -998 -376 -23 -5 -47 4 -47 17 0 5 41 62
92 126 117 150 271 384 388 587 100 176 314 604 380 760 64 153 88 195 109
195 10 0 45 -17 78 -39z m164 -88 c13 -16 12 -17 -3 -4 -17 13 -22 21 -14 21
2 0 10 -8 17 -17z m140 -140 c13 -16 12 -17 -3 -4 -17 13 -22 21 -14 21 2 0
10 -8 17 -17z m-548 -8 c-3 -9 -8 -14 -10 -11 -3 3 -2 9 2 15 9 16 15 13 8 -4z
m-27 -62 c-8 -15 -15 -25 -16 -21 0 12 23 58 27 54 3 -2 -2 -17 -11 -33z m-34
-70 c-5 -10 -17 -35 -27 -56 -10 -21 -19 -36 -21 -34 -5 5 44 107 51 107 3 0
2 -8 -3 -17z m-89 -178 c-3 -9 -8 -14 -10 -11 -3 3 -2 9 2 15 9 16 15 13 8 -4z
m-29 -63 c-8 -18 -18 -32 -20 -32 -3 0 -4 3 -2 8 20 41 32 61 35 59 2 -2 -4
-18 -13 -35z m-81 -157 c-3 -9 -8 -14 -10 -11 -3 3 -2 9 2 15 9 16 15 13 8 -4z
m-62 -108 c-10 -9 -11 -8 -5 6 3 10 9 15 12 12 3 -3 0 -11 -7 -18z m-28 -52
c-3 -9 -8 -14 -10 -11 -3 3 -2 9 2 15 9 16 15 13 8 -4z m-212 -338 c-10 -9
-11 -8 -5 6 3 10 9 15 12 12 3 -3 0 -11 -7 -18z m-21 -41 c0 -2 -8 -10 -17
-17 -16 -13 -17 -12 -4 4 13 16 21 21 21 13z m-75 -96 c-41 -53 -55 -68 -55
-57 0 2 11 17 24 32 14 16 22 34 19 39 -3 6 -3 8 2 4 4 -4 16 4 27 17 11 14
22 25 24 25 3 0 -16 -27 -41 -60z m-55 -76 c0 -8 -19 -13 -24 -6 -3 5 1 9 9 9
8 0 15 -2 15 -3z m-20 -28 c0 -2 -8 -10 -17 -17 -16 -13 -17 -12 -4 4 13 16
21 21 21 13z"/>
<path d="M3657 4289 c-18 -10 -15 -29 5 -29 6 0 8 3 5 7 -4 3 -2 12 4 20 13
15 10 16 -14 2z"/>
<path d="M3810 4259 c0 -5 5 -7 10 -4 6 3 10 8 10 11 0 2 -4 4 -10 4 -5 0 -10
-5 -10 -11z"/>
<path d="M506 4205 c-11 -8 -15 -15 -9 -15 6 0 16 7 23 15 16 19 11 19 -14 0z"/>
<path d="M3460 4050 c-14 -11 -32 -20 -40 -21 -8 0 -10 -3 -4 -5 6 -3 31 7 55
21 24 13 37 25 29 25 -8 0 -26 -9 -40 -20z"/>
<path d="M3170 4040 c-11 -7 -11 -10 -2 -10 7 0 10 -4 7 -10 -3 -6 1 -7 10 -3
12 4 13 8 5 13 -9 6 -9 9 1 13 8 3 10 6 4 6 -5 0 -17 -4 -25 -9z"/>
<path d="M3208 3983 c7 -3 16 -2 19 1 4 3 -2 6 -13 5 -11 0 -14 -3 -6 -6z"/>
<path d="M3320 3980 c-8 -5 -10 -10 -5 -10 6 0 17 5 25 10 8 5 11 10 5 10 -5
0 -17 -5 -25 -10z"/>
<path d="M2905 3680 c-267 -41 -779 -209 -1099 -359 -282 -134 -622 -347 -744
-468 -52 -52 -69 -89 -34 -79 9 3 51 8 92 12 41 4 80 8 87 8 7 1 22 11 34 22
l23 19 -23 -37 c-26 -43 -18 -68 26 -87 57 -23 345 -91 489 -115 235 -41 401
-57 649 -63 196 -5 239 -3 286 10 150 44 247 163 353 435 20 52 44 121 52 155
20 74 15 189 -9 236 -12 24 -13 30 -2 21 7 -6 16 -24 20 -39 6 -29 53 -71 80
-71 8 0 15 -8 15 -18 0 -9 11 -29 25 -44 19 -21 25 -38 25 -75 0 -50 -41 -188
-71 -237 -9 -16 -15 -36 -12 -45 4 -9 2 -12 -2 -8 -5 4 -14 -12 -21 -35 -6
-24 -19 -60 -28 -80 -20 -47 -14 -50 9 -5 179 342 245 526 245 681 0 87 -15
136 -56 185 -52 60 -118 84 -244 87 -58 2 -132 -1 -165 -6z m51 -235 c100 -29
154 -124 138 -240 -15 -117 -116 -371 -191 -481 -94 -138 -188 -184 -378 -184
-387 0 -945 81 -1230 179 -69 24 -70 45 -7 99 179 150 510 322 922 477 382
144 612 190 746 150z m275 -462 c-12 -20 -14 -14 -5 12 4 9 9 14 11 11 3 -2 0
-13 -6 -23z m-1901 -108 c0 -2 -10 -9 -22 -15 -22 -11 -22 -10 -4 4 21 17 26
19 26 11z"/>
<path d="M4921 3348 c-8 -18 -16 -37 -18 -43 -3 -5 5 5 17 22 12 18 20 37 18
43 -2 6 -10 -4 -17 -22z"/>
<path d="M4879 3273 c-13 -16 -12 -17 4 -4 16 13 21 21 13 21 -2 0 -10 -8 -17
-17z"/>
<path d="M199 3191 c8 -5 10 -14 6 -22 -6 -11 -5 -11 5 -2 14 12 6 33 -13 33
-8 0 -7 -3 2 -9z"/>
<path d="M241 3193 c-1 -6 -4 -20 -7 -30 -5 -17 -5 -17 6 0 6 10 9 23 6 30 -3
9 -5 9 -5 0z"/>
<path d="M3446 3136 c-16 -14 -35 -22 -43 -19 -9 4 -11 0 -7 -13 6 -16 4 -16
-15 3 -12 13 -28 20 -36 17 -11 -5 -13 -2 -9 10 3 9 4 16 1 16 -4 0 -39 -91
-42 -110 0 -3 -6 -15 -13 -28 -7 -12 -10 -28 -6 -34 4 -6 3 -8 -3 -5 -13 8
-44 -69 -37 -91 4 -12 3 -13 -3 -4 -7 9 -27 -21 -67 -100 -32 -62 -81 -147
-109 -188 -28 -41 -41 -67 -30 -57 11 9 23 14 26 10 4 -3 7 2 7 12 0 18 0 18
14 0 13 -18 14 -18 21 4 3 12 84 138 178 279 143 214 213 324 204 322 -1 -1
-15 -11 -31 -24z m-76 -39 c0 -7 -4 -6 -10 3 -8 12 -10 12 -10 1 0 -8 -3 -12
-6 -8 -9 9 6 28 17 22 5 -4 9 -12 9 -18z m80 19 c0 -3 -4 -8 -10 -11 -5 -3
-10 -1 -10 4 0 6 5 11 10 11 6 0 10 -2 10 -4z m-100 -71 c0 -5 -5 -3 -10 5 -5
8 -10 20 -10 25 0 6 5 3 10 -5 5 -8 10 -19 10 -25z m36 -13 c-17 -16 -18 -16
-5 5 7 12 15 20 18 17 3 -2 -3 -12 -13 -22z m-56 -16 c0 -2 -8 -10 -17 -17
-16 -13 -17 -12 -4 4 13 16 21 21 21 13z"/>
<path d="M3085 2679 c-4 -6 -5 -12 -2 -15 2 -3 7 2 10 11 7 17 1 20 -8 4z"/>
<path d="M3059 2633 c-13 -16 -12 -17 4 -4 16 13 21 21 13 21 -2 0 -10 -8 -17
-17z"/>
<path d="M3645 2520 c-13 -6 -15 -9 -5 -9 8 0 22 4 30 9 18 12 2 12 -25 0z"/>
<path d="M3638 2463 c7 -3 16 -2 19 1 4 3 -2 6 -13 5 -11 0 -14 -3 -6 -6z"/>
<path d="M2158 2403 c12 -2 30 -2 40 0 9 3 -1 5 -23 4 -22 0 -30 -2 -17 -4z"/>
<path d="M265 3120 c-3 -6 1 -7 9 -4 18 7 21 14 7 14 -6 0 -13 -4 -16 -10z"/>
<path d="M259 3086 c14 -14 26 -24 29 -22 7 8 -8 25 -31 37 -21 11 -21 10 2
-15z"/>
<path d="M78 1442 l-78 -3 0 -374 0 -375 79 2 79 1 6 81 c4 45 5 113 4 151
l-3 70 160 0 160 0 5 -150 5 -150 83 -1 82 0 0 373 0 373 -85 0 -85 0 0 -140
0 -140 -165 0 -164 0 -3 143 -3 142 -77 -3z"/>
<path d="M751 1418 c7 -13 38 -63 69 -113 31 -49 94 -149 138 -222 l82 -131 0
-129 0 -128 85 0 85 0 0 129 0 129 72 116 c39 64 106 173 150 244 l78 127
-102 0 -103 -1 -90 -145 c-87 -142 -90 -146 -105 -124 -28 41 -130 205 -147
238 l-17 32 -103 0 -104 0 12 -22z"/>
<path d="M1590 1068 l0 -373 292 5 c212 4 299 9 315 18 13 7 32 30 43 52 19
37 20 59 20 355 l0 315 -87 0 -88 0 0 -280 c0 -194 -3 -282 -11 -290 -8 -8
-65 -12 -160 -13 l-149 -1 -3 292 -2 292 -85 0 -85 0 0 -372z"/>
<path d="M2425 1068 l0 -373 60 1 c33 1 72 2 88 3 l27 1 0 290 0 291 158 -3
157 -3 3 -287 2 -288 85 0 85 0 0 326 c0 447 30 414 -382 414 l-284 0 1 -372z"/>
<path d="M3260 1068 l0 -373 293 5 c262 4 296 7 321 23 52 34 56 62 56 348 0
291 -4 311 -65 349 -30 19 -49 20 -319 20 l-286 0 0 -372z m489 193 c11 -20
10 -385 -1 -396 -3 -4 -75 -7 -160 -6 l-153 0 -3 210 -2 211 154 0 c141 0 156
-2 165 -19z"/>
<path d="M4152 1420 c-59 -36 -62 -54 -62 -407 l0 -318 85 0 85 0 0 118 0 117
163 -2 162 -3 3 -112 3 -113 84 0 85 0 0 370 0 370 -287 0 c-271 0 -290 -1
-321 -20z m436 -235 l4 -95 -166 0 -166 0 0 79 c0 44 3 86 6 95 5 14 29 16
163 16 l156 0 3 -95z"/>
<path d="M4932 1069 l3 -371 73 0 c39 1 79 1 87 1 13 1 15 49 15 371 l0 370
-90 0 -90 0 2 -371z"/>
</g>
</svg>
