<?xml version="1.0" standalone="no"?>
<!DOCTYPE svg PUBLIC "-//W3C//DTD SVG 20010904//EN"
 "http://www.w3.org/TR/2001/REC-SVG-20010904/DTD/svg10.dtd">
<svg version="1.0" xmlns="http://www.w3.org/2000/svg"
 width="598.000000pt" height="596.000000pt" viewBox="0 0 598.000000 596.000000"
 preserveAspectRatio="xMidYMid meet">

<g transform="translate(0.000000,596.000000) scale(0.100000,-0.100000)"
fill="#000000" stroke="none">
<path d="M2865 5384 c-516 -39 -977 -216 -1355 -520 -750 -603 -1068 -1560
-829 -2491 55 -215 171 -483 293 -677 433 -686 1215 -1116 2031 -1116 291 0
616 60 875 162 354 139 699 384 945 670 399 464 603 1041 582 1648 -12 349
-85 651 -231 955 -122 253 -248 435 -441 634 -395 407 -871 646 -1435 720 -85
11 -359 21 -435 15z m435 -39 c369 -46 751 -189 1045 -393 565 -391 927 -980
1021 -1657 21 -147 21 -474 0 -620 -96 -689 -459 -1274 -1036 -1669 -224 -154
-551 -292 -831 -351 -219 -47 -560 -62 -769 -36 -699 90 -1290 448 -1692 1026
-203 293 -346 672 -393 1045 -17 134 -19 426 -4 555 63 548 303 1045 688 1424
385 379 849 607 1381 676 134 18 451 18 590 0z"/>
<path d="M3046 5142 c-3 -3 -6 -18 -6 -33 0 -31 15 -39 75 -39 24 0 46 -4 49
-9 3 -5 -1 -77 -9 -161 -9 -83 -13 -155 -10 -161 4 -5 23 -9 44 -9 l38 0 12
128 c6 70 14 142 17 161 l5 33 64 -4 63 -4 6 30 c3 16 4 31 2 34 -3 2 -65 10
-138 18 -73 7 -150 15 -170 18 -20 2 -39 1 -42 -2z"/>
<path d="M2460 5073 c-74 -19 -136 -36 -138 -38 -3 -3 88 -375 93 -383 1 -1
70 14 153 35 l151 37 -6 31 c-3 16 -7 32 -9 34 -2 2 -51 -8 -110 -23 -59 -15
-107 -25 -108 -24 -6 8 -27 90 -24 92 2 2 46 14 98 28 89 23 95 26 92 49 -2
13 -7 27 -10 31 -4 4 -50 -4 -102 -17 -52 -13 -95 -23 -96 -22 -6 6 -23 82
-19 85 2 2 50 16 108 30 l103 27 -8 33 c-5 17 -14 32 -21 31 -7 0 -73 -16
-147 -36z"/>
<path d="M3447 4908 c-32 -101 -57 -188 -57 -193 0 -6 18 -16 40 -22 l40 -10
21 68 c12 38 24 71 27 72 17 9 104 -26 117 -46 13 -20 13 -29 0 -77 -8 -30
-15 -58 -15 -61 0 -6 80 -32 84 -27 7 8 26 100 26 124 0 15 -10 38 -22 51 -19
20 -19 23 -4 23 52 0 96 51 96 111 0 64 -33 88 -185 134 -49 15 -95 29 -101
32 -6 2 -34 -72 -67 -179z m221 55 c43 -21 51 -49 24 -84 -19 -23 -22 -23 -78
-11 -32 6 -62 16 -66 20 -5 5 -4 30 3 57 12 46 12 47 46 42 19 -3 51 -14 71
-24z"/>
<path d="M2930 4924 c-14 -2 -64 -6 -112 -9 l-88 -7 0 -30 0 -30 78 7 c172 13
172 14 172 46 0 17 -5 28 -12 28 -7 -1 -24 -3 -38 -5z"/>
<path d="M1947 4873 c-32 -9 -65 -30 -97 -62 -42 -40 -50 -53 -50 -85 0 -52
25 -95 66 -112 38 -16 58 -13 153 25 61 25 96 21 106 -9 10 -32 -3 -55 -44
-78 -46 -26 -78 -28 -103 -5 -17 15 -20 15 -53 -3 -19 -10 -35 -20 -35 -22 0
-18 27 -43 61 -56 48 -19 81 -15 150 20 110 55 142 148 76 220 -28 31 -39 36
-74 36 -22 0 -68 -12 -101 -26 -74 -31 -98 -32 -112 -6 -16 29 -3 58 33 81 36
21 69 24 95 8 14 -9 26 -8 50 5 37 19 39 27 13 50 -31 28 -81 35 -134 19z"/>
<path d="M3895 4749 c-82 -71 -154 -134 -158 -138 -5 -5 8 -18 28 -30 l37 -22
35 27 35 26 46 -26 c26 -15 62 -34 80 -43 30 -15 32 -20 26 -52 -4 -20 -7 -40
-8 -45 -1 -11 63 -50 71 -43 3 3 20 86 39 184 18 98 36 188 39 199 4 18 -6 28
-56 58 -33 20 -61 36 -62 35 -1 0 -69 -59 -152 -130z m166 -54 c-10 -49 -22
-90 -27 -90 -13 0 -92 43 -98 54 -5 7 135 134 140 128 1 -1 -6 -42 -15 -92z"/>
<path d="M1620 4656 l-23 -25 34 -39 c19 -22 62 -72 97 -111 73 -84 78 -107
28 -157 -57 -57 -75 -51 -193 73 l-103 107 -27 -20 c-15 -11 -28 -25 -30 -31
-5 -14 174 -211 208 -228 47 -25 110 -19 155 14 84 60 121 130 103 194 -10 36
-192 247 -213 247 -7 0 -23 -11 -36 -24z"/>
<path d="M4305 4588 c-44 -46 -107 -111 -140 -146 l-59 -62 30 -31 31 -30 108
116 c59 63 110 114 112 112 2 -2 -22 -77 -54 -167 l-56 -163 51 -49 c29 -27
56 -48 61 -46 5 2 68 66 140 143 l131 139 -30 30 -30 30 -114 -119 -114 -120
59 170 58 170 -52 53 -52 52 -80 -82z"/>
<path d="M2880 4518 c-198 -11 -362 -56 -559 -154 -420 -207 -721 -595 -826
-1064 -26 -116 -32 -441 -10 -573 57 -344 249 -686 511 -911 205 -175 429
-286 706 -348 89 -20 130 -23 303 -23 224 0 303 12 480 70 417 136 761 450
939 855 94 213 133 429 123 679 -10 237 -54 408 -162 626 -218 440 -627 743
-1115 829 -104 18 -237 23 -390 14z m425 -48 c370 -78 697 -284 916 -579 200
-269 299 -568 300 -902 2 -416 -148 -782 -439 -1076 -233 -236 -524 -382 -862
-433 -107 -16 -338 -14 -450 4 -557 91 -1016 478 -1198 1011 -241 705 74 1487
738 1834 156 81 316 130 545 165 74 11 353 -4 450 -24z"/>
<path d="M4631 4231 c-42 -39 -42 -90 0 -172 16 -34 29 -72 27 -86 -7 -56 -72
-56 -107 1 -24 39 -27 74 -7 101 14 19 8 34 -31 84 -8 10 -44 -36 -54 -69 -17
-55 11 -129 70 -191 70 -73 125 -77 188 -14 44 44 43 78 -4 178 -41 86 -38
109 10 115 51 6 103 -80 77 -128 -9 -17 -7 -27 10 -55 12 -19 24 -35 26 -35 2
0 13 15 24 33 40 65 19 148 -57 225 -38 38 -47 42 -92 42 -40 0 -54 -5 -80
-29z"/>
<path d="M1198 4194 l-38 -55 107 -147 c58 -81 114 -157 124 -170 l17 -23 27
35 27 35 -27 35 -27 35 53 76 c38 56 56 74 68 70 51 -20 68 -17 91 15 12 17
19 35 14 39 -9 8 -376 111 -391 111 -5 -1 -25 -26 -45 -56z m146 -58 c48 -14
90 -26 92 -29 5 -5 -59 -94 -69 -96 -4 -1 -29 27 -54 61 -25 35 -50 69 -56 76
-12 15 -17 16 87 -12z"/>
<path d="M1006 2816 c-15 -79 -38 -102 -113 -116 l-38 -7 30 -7 c69 -17 88
-30 106 -70 10 -23 19 -52 20 -66 0 -15 6 -4 15 30 17 63 38 85 97 101 l42 12
-42 11 c-55 14 -83 43 -98 102 l-12 48 -7 -38z"/>
<path d="M4996 2825 c-17 -65 -23 -79 -47 -97 -13 -10 -44 -22 -69 -26 l-45
-8 53 -12 c62 -14 89 -40 98 -95 9 -52 20 -54 27 -6 7 51 39 87 86 95 52 9 74
23 38 24 -38 0 -95 28 -108 52 -6 10 -14 38 -18 61 l-8 42 -7 -30z"/>
<path d="M1240 2491 c-23 -6 -25 -9 -19 -51 l6 -45 1 43 c2 41 3 43 30 40 23
-2 28 -9 31 -38 l5 -35 5 40 c5 31 11 41 28 43 18 3 23 -4 31 -40 9 -39 10
-40 11 -11 2 54 -6 63 -58 62 -25 -1 -57 -4 -71 -8z"/>
<path d="M4628 2474 c-14 -31 -1 -57 30 -62 16 -3 28 6 43 32 24 41 59 49 59
14 0 -12 -7 -30 -17 -40 -15 -17 -15 -18 1 -18 25 0 42 44 28 75 -18 38 -54
33 -78 -10 -19 -36 -48 -46 -58 -20 -3 8 4 24 16 35 19 17 19 20 5 20 -10 0
-23 -12 -29 -26z"/>
<path d="M4590 2261 c0 -5 25 -15 55 -22 31 -7 52 -16 48 -19 -4 -4 -33 -17
-63 -28 -30 -10 -56 -24 -57 -29 -2 -5 22 -16 54 -23 32 -7 64 -15 71 -17 6
-3 12 -1 12 5 0 5 -26 16 -57 24 l-58 14 67 23 c37 12 70 27 73 31 3 5 -20 17
-52 25 -32 9 -66 19 -75 21 -10 3 -18 1 -18 -5z"/>
<path d="M1316 2215 c6 -40 11 -52 18 -44 2 2 -3 22 -10 44 l-13 40 5 -40z"/>
<path d="M1453 2040 c6 -23 1 -27 -53 -49 -33 -12 -60 -27 -60 -32 0 -7 22 0
117 38 6 2 14 -5 18 -16 3 -12 10 -21 15 -21 5 0 0 21 -11 47 -23 55 -34 69
-26 33z"/>
<path d="M4501 1974 c-28 -36 -26 -60 8 -95 49 -49 114 -30 127 38 14 71 -90
114 -135 57z m88 1 c34 -17 43 -44 27 -77 -14 -29 -58 -35 -92 -13 -32 20 -33
68 -2 89 28 20 32 20 67 1z"/>
<path d="M1490 1804 c-30 -18 -57 -39 -59 -46 -2 -7 7 -5 24 6 38 25 56 7 32
-33 -23 -40 -21 -63 3 -27 14 22 27 30 51 30 46 1 59 26 35 71 -11 19 -22 35
-25 34 -3 0 -31 -16 -61 -35z m80 -29 c0 -33 -31 -41 -53 -14 -18 22 -18 23 5
40 27 21 48 9 48 -26z"/>
<path d="M4380 1756 c0 -8 118 -76 131 -76 8 0 -14 18 -48 40 -56 36 -83 48
-83 36z"/>
<path d="M4271 1593 c-17 -20 -28 -39 -26 -42 3 -2 11 3 18 12 11 15 17 13 62
-23 69 -55 82 -50 18 6 -45 39 -51 49 -43 65 16 30 4 22 -29 -18z"/>
<path d="M1643 1577 c-64 -23 -98 -45 -52 -34 20 5 30 1 47 -22 14 -20 17 -32
10 -39 -6 -6 -8 -16 -6 -23 4 -11 76 100 81 124 4 17 -17 16 -80 -6z m41 -36
c-17 -29 -19 -29 -36 -14 -10 9 -18 19 -18 23 0 7 62 29 68 24 2 -1 -4 -16
-14 -33z"/>
<path d="M4140 1446 c0 -4 16 -27 35 -50 37 -46 42 -65 23 -84 -21 -21 -46
-13 -81 28 -19 22 -40 40 -48 40 -7 0 7 -20 31 -45 52 -53 90 -60 115 -21 15
22 15 28 2 53 -16 29 -77 93 -77 79z"/>
<path d="M1806 1389 c-25 -28 -46 -56 -46 -63 1 -6 19 9 41 33 21 24 41 42 43
40 2 -2 -1 -33 -6 -67 -5 -35 -7 -67 -3 -70 4 -4 29 18 55 48 58 64 56 84 -1
23 -43 -47 -45 -44 -30 50 4 26 5 50 0 52 -4 3 -28 -18 -53 -46z"/>
<path d="M2035 1239 c-5 -14 0 -31 15 -51 24 -33 21 -58 -8 -58 -23 0 -46 25
-38 39 4 5 1 13 -5 16 -7 5 -9 -3 -7 -21 2 -19 13 -34 31 -44 27 -14 29 -14
47 8 19 23 19 24 -3 62 -17 30 -19 42 -10 51 16 16 43 4 43 -21 0 -11 5 -20
10 -20 18 0 11 39 -9 50 -32 16 -59 12 -66 -11z"/>
<path d="M3896 1223 c73 -114 66 -110 119 -69 26 20 11 20 -20 0 -23 -15 -25
-14 -55 28 -18 24 -34 49 -37 56 -3 6 -10 12 -15 12 -6 0 -2 -12 8 -27z"/>
<path d="M2232 1085 c-17 -35 -27 -67 -23 -70 5 -3 14 8 19 24 10 28 12 29 42
18 64 -24 96 37 38 73 -18 11 -35 20 -38 20 -3 0 -20 -29 -38 -65z m72 32 c21
-15 18 -50 -4 -55 -9 -1 -24 4 -34 11 -15 11 -17 17 -7 35 14 26 21 27 45 9z"/>
<path d="M3692 1140 c-47 -19 -53 -89 -12 -130 26 -26 60 -25 94 1 41 32 30
105 -21 128 -28 13 -30 13 -61 1z m73 -30 c52 -57 -13 -136 -72 -86 -28 24
-34 66 -13 91 18 21 64 19 85 -5z"/>
<path d="M2488 1040 c-9 -6 -22 -26 -28 -45 -10 -30 -9 -40 5 -61 46 -70 135
-41 135 45 0 54 -63 89 -112 61z m66 -12 c30 -13 39 -36 30 -72 -11 -45 -62
-60 -96 -29 -25 23 -23 59 7 88 28 29 26 29 59 13z"/>
<path d="M3426 1035 c-9 -9 -16 -20 -16 -24 0 -20 29 -40 60 -43 28 -2 36 -8
38 -26 4 -27 -23 -40 -49 -24 -26 16 -34 15 -19 -3 15 -18 61 -20 78 -3 16 16
15 58 0 63 -7 2 -30 6 -50 10 -28 4 -38 11 -38 24 0 24 26 34 52 20 16 -9 19
-8 16 3 -7 19 -53 22 -72 3z"/>
<path d="M2755 952 c-3 -26 -9 -59 -11 -74 -3 -17 -1 -28 5 -28 6 0 11 14 11
30 0 45 35 41 50 -5 6 -19 15 -35 20 -35 5 0 4 13 -1 30 -9 24 -8 33 5 46 34
33 16 66 -41 77 -32 6 -32 6 -38 -41z m72 17 c20 -20 3 -49 -28 -49 -26 0 -29
4 -29 30 0 25 4 30 23 30 13 0 28 -5 34 -11z"/>
<path d="M3013 973 c26 -4 27 -6 27 -74 0 -45 4 -69 11 -69 9 0 10 20 5 69
l-6 70 27 4 c16 2 1 4 -32 4 -33 0 -48 -2 -32 -4z"/>
</g>
</svg>
